<?xml version="1.0" encoding="UTF-8" standalone="no"?>
<!-- Created with Inkscape (http://www.inkscape.org/) -->

<svg
   xmlns:dc="http://purl.org/dc/elements/1.1/"
   xmlns:cc="http://creativecommons.org/ns#"
   xmlns:rdf="http://www.w3.org/1999/02/22-rdf-syntax-ns#"
   xmlns:svg="http://www.w3.org/2000/svg"
   xmlns="http://www.w3.org/2000/svg"
   xmlns:sodipodi="http://sodipodi.sourceforge.net/DTD/sodipodi-0.dtd"
   xmlns:inkscape="http://www.inkscape.org/namespaces/inkscape"
   width="40.639999mm"
   height="128.5mm"
   viewBox="0 0 40.640006 128.50002"
   version="1.1"
   id="svg8"
   inkscape:version="0.92.4 (5da689c313, 2019-01-14)"
   sodipodi:docname="Attenuvert.svg">
  <defs
     id="defs2" />
  <sodipodi:namedview
     id="base"
     pagecolor="#ffffff"
     bordercolor="#666666"
     borderopacity="1.0"
     inkscape:pageopacity="0.0"
     inkscape:pageshadow="2"
     inkscape:zoom="0.98994949"
     inkscape:cx="-449.79995"
     inkscape:cy="282.01778"
     inkscape:document-units="mm"
     inkscape:current-layer="layer1"
     showgrid="false"
     units="mm"
     inkscape:snap-bbox="true"
     inkscape:snap-page="true"
     inkscape:bbox-nodes="false"
     inkscape:snap-bbox-edge-midpoints="false"
     inkscape:window-width="1920"
     inkscape:window-height="1057"
     inkscape:window-x="-8"
     inkscape:window-y="-8"
     inkscape:window-maximized="1"
     inkscape:snap-bbox-midpoints="true"
     inkscape:snap-nodes="false" />
  <metadata
     id="metadata5">
    <rdf:RDF>
      <cc:Work
         rdf:about="">
        <dc:format>image/svg+xml</dc:format>
        <dc:type
           rdf:resource="http://purl.org/dc/dcmitype/StillImage" />
        <dc:title />
      </cc:Work>
    </rdf:RDF>
  </metadata>
  <g
     inkscape:label="Layer 1"
     inkscape:groupmode="layer"
     id="layer1"
     transform="translate(0,-168.49999)"
     style="display:inline">
    <rect
       style="display:inline;opacity:1;vector-effect:none;fill:#e6e6e6;fill-opacity:1;fill-rule:evenodd;stroke:none;stroke-width:0.74981445;stroke-linecap:butt;stroke-linejoin:miter;stroke-miterlimit:4;stroke-dasharray:none;stroke-dashoffset:0;stroke-opacity:1;paint-order:normal"
       id="rect420"
       width="40.639999"
       height="128.5"
       x="3.469447e-18"
       y="168.49998" />
    <g
       aria-label="SFxPW"
       transform="matrix(0.26458333,0,0,0.26458333,-49.663669,164.33939)"
       style="font-style:italic;font-variant:normal;font-weight:300;font-stretch:normal;font-size:32px;line-height:1.25;font-family:Roboto;-inkscape-font-specification:'Roboto, Light Italic';font-variant-ligatures:normal;font-variant-caps:normal;font-variant-numeric:normal;font-feature-settings:normal;text-align:start;letter-spacing:0px;word-spacing:0px;writing-mode:lr-tb;text-anchor:start;fill:#000000;fill-opacity:1;stroke:none"
       id="flowRoot4556">
      <path
         d="m 228.77734,64.509766 q 0.35938,-2.9375 -3.14062,-4.3125 l -2.98438,-1.078125 -0.96875,-0.390625 q -4.4375,-1.890625 -4.10937,-5.578125 0.14062,-1.8125 1.28125,-3.1875 1.14062,-1.375 3,-2.109375 1.875,-0.75 3.96875,-0.703125 2.01562,0.04687 3.59375,0.9375 1.59375,0.875 2.375,2.40625 0.79687,1.53125 0.625,3.453125 h -1.92188 q 0.21875,-2.3125 -1.09375,-3.703125 -1.29687,-1.390625 -3.67187,-1.453125 -2.46875,-0.03125 -4.23438,1.140625 -1.75,1.15625 -2,3.171875 -0.20312,1.609375 0.9375,2.75 1.15625,1.125 4,1.96875 3.625,1.15625 5.03125,2.765625 1.42188,1.609375 1.23438,3.875 -0.17188,1.875 -1.3125,3.265625 -1.14063,1.375 -3.04688,2.109375 -1.90625,0.734375 -4.09375,0.6875 -2.17187,-0.01563 -3.92187,-0.890625 -1.73438,-0.875 -2.60938,-2.390625 -0.85937,-1.53125 -0.6875,-3.53125 h 1.90625 q -0.23437,2.375 1.26563,3.78125 1.51562,1.390625 4.14062,1.421875 2.625,0.03125 4.40625,-1.1875 1.79688,-1.21875 2.03125,-3.21875 z"
         id="path4608"
         inkscape:connector-curvature="0" />
      <path
         d="m 247.90234,59.587891 h -10.28125 l -1.85937,10.625 h -1.90625 l 3.95312,-22.75 h 13.71875 l -0.29687,1.640625 h -11.79688 l -1.54687,8.84375 h 10.3125 z"
         id="path4610"
         inkscape:connector-curvature="0" />
      <path
         d="m 257.90234,60.134766 5.48438,-6.828125 h 2.3125 l -6.9375,8.390625 4.42187,8.515625 h -2.0625 l -3.53125,-7.125 -5.78125,7.125 h -2.28125 l 7.21875,-8.703125 -4.23437,-8.203125 h 2.0625 z"
         id="path4612"
         inkscape:connector-curvature="0" />
      <path
         d="m 270.24609,60.947266 -1.60937,9.265625 h -1.90625 l 3.95312,-22.75 7.40625,0.01563 q 3.1875,0.09375 4.92188,1.890625 1.73437,1.78125 1.46875,4.78125 -0.3125,3.1875 -2.57813,5 -2.26562,1.8125 -5.90625,1.8125 z m 0.28125,-1.625 5.54688,0.01563 q 2.70312,0 4.45312,-1.375 1.75,-1.375 2.04688,-3.796875 0.25,-2.3125 -1,-3.640625 -1.23438,-1.34375 -3.53125,-1.40625 l -5.73438,-0.01563 z"
         id="path4614"
         inkscape:connector-curvature="0" />
      <path
         d="m 291.21484,64.134766 0.10938,3.359375 1.35937,-3.328125 7.375,-16.703125 h 1.71875 l 2.125,16.859375 0.26563,3.21875 1.28125,-3.53125 6.5625,-16.546875 h 2 l -9.21875,22.75 h -1.82813 l -2.23437,-17.875 -0.17188,-2.09375 -0.875,2.171875 -7.90625,17.796875 h -1.82812 l -2.09375,-22.75 h 1.90625 z"
         id="path4616"
         inkscape:connector-curvature="0" />
    </g>
    <rect
       style="fill:#000000;fill-opacity:1;stroke-width:0.25392941"
       id="rect4590"
       width="19.276785"
       height="25.676006"
       x="10.681607"
       y="256.96707" />
    <g
       aria-label="out"
       transform="matrix(0.26458333,0,0,0.26458333,-40.878798,260.67723)"
       style="font-style:italic;font-variant:normal;font-weight:300;font-stretch:normal;font-size:24px;line-height:1.25;font-family:Roboto;-inkscape-font-specification:'Roboto, Light Italic';font-variant-ligatures:normal;font-variant-caps:normal;font-variant-numeric:normal;font-feature-settings:normal;text-align:start;letter-spacing:0px;word-spacing:0px;writing-mode:lr-tb;text-anchor:start;fill:#ffffff;fill-opacity:1;stroke:none"
       id="flowRoot4556-8">
      <path
         d="m 215.03125,56.755859 q 0.21094,-1.839843 1.125,-3.363281 0.91406,-1.535156 2.27344,-2.332031 1.37109,-0.796875 2.96484,-0.761719 1.57031,0.02344 2.67188,0.867188 1.11328,0.832031 1.61718,2.285156 0.51563,1.441406 0.35157,3.199219 l -0.0234,0.222656 q -0.35156,3 -2.13281,4.816406 -1.76954,1.816406 -4.25391,1.757813 -2.13281,-0.03516 -3.41016,-1.570313 -1.27734,-1.535156 -1.2539,-4.054687 l 0.0352,-0.667969 z m 1.35937,0.398438 q -0.15234,1.394531 0.19922,2.578125 0.36328,1.171875 1.14844,1.839844 0.78516,0.667968 1.95703,0.703125 1.26563,0.02344 2.3086,-0.644532 1.05468,-0.667968 1.73437,-1.886718 0.67969,-1.21875 0.87891,-2.695313 l 0.0352,-0.386719 q 0.21094,-2.261718 -0.70312,-3.691406 -0.90235,-1.441406 -2.625,-1.476562 -1.875,-0.05859 -3.2461,1.453125 -1.35937,1.5 -1.66406,3.996093 z"
         id="path4601"
         inkscape:connector-curvature="0" />
      <path
         d="m 236.27734,61.619141 q -1.51172,1.898437 -4.17187,1.828125 -1.79297,-0.03516 -2.67188,-1.289063 -0.8789,-1.265625 -0.63281,-3.503906 l 1.35938,-8.121094 h 1.38281 l -1.34766,8.15625 q -0.0703,0.632813 -0.0117,1.253906 0.082,1.078125 0.64453,1.664063 0.5625,0.585937 1.54688,0.621094 1.40625,0.05859 2.60156,-0.644532 1.19531,-0.714843 1.54688,-1.863281 l 1.57031,-9.1875 H 239.5 l -2.20313,12.679688 h -1.35937 z"
         id="path4603"
         inkscape:connector-curvature="0" />
      <path
         d="m 245.66406,47.287109 -0.5625,3.246094 h 2.54297 l -0.19922,1.148438 h -2.54297 l -1.40625,8.460937 -0.0234,0.726563 q 0,1.277343 1.17187,1.3125 0.36328,0.01172 1.13672,-0.08203 l -0.0586,1.148438 q -0.69141,0.199219 -1.40625,0.175781 -1.23047,-0.02344 -1.79297,-0.855469 -0.5625,-0.84375 -0.41016,-2.4375 l 1.39453,-8.449218 h -2.27344 l 0.21094,-1.148438 h 2.25 l 0.57422,-3.246094 z"
         id="path4605"
         inkscape:connector-curvature="0" />
    </g>
    <text
       xml:space="preserve"
       style="font-style:normal;font-weight:normal;font-size:10.58333302px;line-height:1.25;font-family:sans-serif;letter-spacing:0px;word-spacing:0px;fill:#000000;fill-opacity:1;stroke:none;stroke-width:0.26458332"
       x="-34.962795"
       y="211.57736"
       id="text1498"><tspan
         sodipodi:role="line"
         id="tspan1496"
         x="-34.962795"
         y="220.94113"
         style="stroke-width:0.26458332" /></text>
    <g
       aria-label="ATTENUVERT"
       transform="matrix(0.26458333,0,0,0.26458333,106.33973,158.33824)"
       style="font-style:italic;font-variant:normal;font-weight:300;font-stretch:normal;font-size:21.33333397px;line-height:1.25;font-family:Roboto;-inkscape-font-specification:'Roboto, Light Italic';font-variant-ligatures:normal;font-variant-caps:normal;font-variant-numeric:normal;font-feature-settings:normal;text-align:start;letter-spacing:0px;word-spacing:0px;writing-mode:lr-tb;text-anchor:start;fill:#000000;fill-opacity:1;stroke:none"
       id="flowRoot1457">
      <path
         d="m -379.10352,151.51432 h -6.64583 l -2.26042,4.25 h -1.38541 l 8.19791,-15.16666 h 1.21875 l 2.92709,15.16666 h -1.26042 z m -6.07291,-1.09375 h 5.86458 l -1.5,-8.21875 z"
         id="path1465"
         inkscape:connector-curvature="0" />
      <path
         d="m -363.6556,141.69141 h -5.03125 l -2.44791,14.07291 h -1.27084 l 2.44792,-14.07291 h -5.04167 l 0.19792,-1.09375 h 11.34375 z"
         id="path1467"
         inkscape:connector-curvature="0" />
      <path
         d="m -351.0306,141.69141 h -5.03125 l -2.44791,14.07291 h -1.27084 l 2.44792,-14.07291 h -5.04167 l 0.19792,-1.09375 h 11.34375 z"
         id="path1469"
         inkscape:connector-curvature="0" />
      <path
         d="m -341.60351,148.49349 h -6.875 l -1.08334,6.1875 h 7.91667 l -0.1875,1.08333 h -9.1875 l 2.63542,-15.16666 h 9.13541 l -0.19791,1.09375 h -7.85417 l -1,5.71875 h 6.88542 z"
         id="path1471"
         inkscape:connector-curvature="0" />
      <path
         d="m -328.1556,155.76432 h -1.22916 l -6.21875,-13 -2.26042,13 h -1.28125 l 2.63542,-15.16666 h 1.22916 l 6.22917,13.01041 2.26042,-13.01041 h 1.26041 z"
         id="path1473"
         inkscape:connector-curvature="0" />
      <path
         d="m -311.50976,140.59766 -1.76042,10.26041 q -0.375,2.39584 -2.01042,3.78125 -1.63541,1.38542 -3.97916,1.34375 -1.46875,-0.0312 -2.54167,-0.67708 -1.0625,-0.64583 -1.55208,-1.8125 -0.47917,-1.16667 -0.30209,-2.61458 l 1.76042,-10.28125 h 1.26042 l -1.75,10.29166 q -0.21875,1.76042 0.64583,2.85417 0.86458,1.08333 2.54167,1.14583 1.75,0.0625 3.01041,-0.96875 1.26042,-1.03125 1.60417,-2.86458 l 1.79167,-10.45833 z"
         id="path1475"
         inkscape:connector-curvature="0" />
      <path
         d="m -305.82226,153.88932 0.0208,0.32292 0.14584,-0.32292 6.70833,-13.29166 h 1.4375 l -7.85417,15.16666 h -1.21875 l -3.09375,-15.16666 h 1.28125 z"
         id="path1477"
         inkscape:connector-curvature="0" />
      <path
         d="m -288.35351,148.49349 h -6.875 l -1.08333,6.1875 h 7.91666 l -0.1875,1.08333 h -9.1875 l 2.63542,-15.16666 h 9.13542 l -0.19792,1.09375 h -7.85417 l -1,5.71875 h 6.88542 z"
         id="path1479"
         inkscape:connector-curvature="0" />
      <path
         d="m -279.25976,149.45182 h -4.28125 l -1.10417,6.3125 h -1.28125 l 2.63542,-15.16666 4.48958,0.0104 q 2.27084,0 3.5,1.1875 1.22917,1.17709 1.03125,3.1875 -0.15625,1.52084 -1.14583,2.625 -0.97917,1.10417 -2.61458,1.60417 l 2.58333,6.40625 -0.0104,0.14583 h -1.35416 z m -4.09375,-1.09375 3.75,0.0104 q 1.60417,0 2.73958,-0.9375 1.14584,-0.94792 1.32292,-2.45833 0.17708,-1.45834 -0.64583,-2.34375 -0.82292,-0.88542 -2.42709,-0.92709 l -3.58333,-0.0104 z"
         id="path1481"
         inkscape:connector-curvature="0" />
      <path
         d="m -261.0306,141.69141 h -5.03125 l -2.44791,14.07291 h -1.27084 l 2.44792,-14.07291 h -5.04167 l 0.19792,-1.09375 h 11.34375 z"
         id="path1483"
         inkscape:connector-curvature="0" />
    </g>
    <g
       aria-label="+"
       style="font-style:normal;font-variant:normal;font-weight:300;font-stretch:normal;font-size:4.23333311px;line-height:1.25;font-family:Roboto;-inkscape-font-specification:'Roboto, Light';font-variant-ligatures:normal;font-variant-caps:normal;font-variant-numeric:normal;font-feature-settings:normal;text-align:start;letter-spacing:0px;word-spacing:0px;writing-mode:lr-tb;text-anchor:start;fill:#000000;fill-opacity:1;stroke:none;stroke-width:0.26458332"
       id="text1488"
       transform="translate(-3.7041669,-8.9958338)">
      <path
         d="m 28.373262,238.01799 h 0.915707 v 0.23151 h -0.915707 v 0.99632 h -0.250114 v -0.99632 h -0.897102 v -0.23151 h 0.897102 v -0.96325 h 0.250114 z"
         style="font-style:normal;font-variant:normal;font-weight:300;font-stretch:normal;font-size:4.23333311px;font-family:Roboto;-inkscape-font-specification:'Roboto, Light';font-variant-ligatures:normal;font-variant-caps:normal;font-variant-numeric:normal;font-feature-settings:normal;text-align:start;writing-mode:lr-tb;text-anchor:start;stroke-width:0.26458332"
         id="path1525"
         inkscape:connector-curvature="0" />
    </g>
    <g
       aria-label="-"
       style="font-style:normal;font-variant:normal;font-weight:300;font-stretch:normal;font-size:4.23333311px;line-height:1.25;font-family:Roboto;-inkscape-font-specification:'Roboto, Light';font-variant-ligatures:normal;font-variant-caps:normal;font-variant-numeric:normal;font-feature-settings:normal;text-align:start;letter-spacing:0px;word-spacing:0px;writing-mode:lr-tb;text-anchor:start;display:inline;fill:#000000;fill-opacity:1;stroke:none;stroke-width:0.26458332"
       id="text1488-0"
       transform="translate(3.7041669,-8.9958338)">
      <path
         d="m 12.87756,238.25467 h -0.99012 v -0.20878 h 0.99012 z"
         style="font-style:normal;font-variant:normal;font-weight:300;font-stretch:normal;font-size:4.23333311px;font-family:Roboto;-inkscape-font-specification:'Roboto, Light';font-variant-ligatures:normal;font-variant-caps:normal;font-variant-numeric:normal;font-feature-settings:normal;text-align:start;writing-mode:lr-tb;text-anchor:start;stroke-width:0.26458332"
         id="path1522"
         inkscape:connector-curvature="0" />
    </g>
    <g
       aria-label="0"
       style="font-style:normal;font-variant:normal;font-weight:300;font-stretch:normal;font-size:4.23333311px;line-height:1.25;font-family:Roboto;-inkscape-font-specification:'Roboto, Light';font-variant-ligatures:normal;font-variant-caps:normal;font-variant-numeric:normal;font-feature-settings:normal;text-align:start;letter-spacing:0px;word-spacing:0px;writing-mode:lr-tb;text-anchor:start;display:inline;fill:#000000;fill-opacity:1;stroke:none;stroke-width:0.26458332"
       id="text1488-1"
       transform="translate(0,-2.6458334)">
      <path
         d="m 21.245007,227.02803 q 0,0.63665 -0.233577,0.96738 -0.233578,0.32866 -0.68833,0.32866 -0.446485,0 -0.684196,-0.32246 -0.237712,-0.32453 -0.243913,-0.94258 v -0.5395 q 0,-0.63459 0.235644,-0.96118 0.235645,-0.3266 0.68833,-0.3266 0.446485,0 0.682129,0.31626 0.235645,0.3142 0.243913,0.92811 z m -0.248047,-0.53951 q 0,-0.51676 -0.169498,-0.78134 -0.167432,-0.26459 -0.508497,-0.26459 -0.334863,0 -0.504361,0.25839 -0.169499,0.25838 -0.173633,0.76274 v 0.59118 q 0,0.5147 0.173633,0.78755 0.175699,0.27285 0.508496,0.27285 0.330729,0 0.500227,-0.26665 0.171566,-0.26665 0.173633,-0.78135 z"
         style="font-style:normal;font-variant:normal;font-weight:300;font-stretch:normal;font-size:4.23333311px;font-family:Roboto;-inkscape-font-specification:'Roboto, Light';font-variant-ligatures:normal;font-variant-caps:normal;font-variant-numeric:normal;font-feature-settings:normal;text-align:start;writing-mode:lr-tb;text-anchor:start;stroke-width:0.26458332"
         id="path1528"
         inkscape:connector-curvature="0" />
    </g>
    <rect
       style="fill:#000000;fill-opacity:1;stroke-width:0.14003675"
       id="rect1520"
       width="0.2"
       height="3.4017859"
       x="20.219999"
       y="227.60358" />
  </g>
  <g
     inkscape:groupmode="layer"
     id="layer2"
     inkscape:label="components"
     style="display:none"
     transform="translate(0,-5.3405761e-6)">
    <circle
       style="display:inline;opacity:1;vector-effect:none;fill:#ff0000;fill-opacity:1;fill-rule:evenodd;stroke:none;stroke-width:1;stroke-linecap:butt;stroke-linejoin:miter;stroke-miterlimit:4;stroke-dasharray:none;stroke-dashoffset:0;stroke-opacity:1;paint-order:normal"
       id="path4954"
       cx="20.32"
       cy="66.850159"
       r="4"
       inkscape:label="attenuverter" />
    <circle
       style="display:inline;opacity:1;vector-effect:none;fill:#0000ff;fill-opacity:1;fill-rule:evenodd;stroke:none;stroke-width:1;stroke-linecap:butt;stroke-linejoin:miter;stroke-miterlimit:4;stroke-dasharray:none;stroke-dashoffset:0;stroke-opacity:1;paint-order:normal"
       id="circle4958"
       cx="20.32"
       cy="96.812469"
       r="4"
       inkscape:label="output" />
    <circle
       style="display:inline;opacity:1;vector-effect:none;fill:#00ff00;fill-opacity:1;fill-rule:evenodd;stroke:none;stroke-width:1;stroke-linecap:butt;stroke-linejoin:miter;stroke-miterlimit:4;stroke-dasharray:none;stroke-dashoffset:0;stroke-opacity:1;paint-order:normal"
       id="path4954-7"
       cx="20.32"
       cy="45.354527"
       r="4"
       inkscape:label="input" />
  </g>
</svg>
