<?xml version="1.0" encoding="UTF-8" standalone="no"?>
<!-- Created with Inkscape (http://www.inkscape.org/) -->

<svg
   xmlns:dc="http://purl.org/dc/elements/1.1/"
   xmlns:cc="http://creativecommons.org/ns#"
   xmlns:rdf="http://www.w3.org/1999/02/22-rdf-syntax-ns#"
   xmlns:svg="http://www.w3.org/2000/svg"
   xmlns="http://www.w3.org/2000/svg"
   xmlns:sodipodi="http://sodipodi.sourceforge.net/DTD/sodipodi-0.dtd"
   xmlns:inkscape="http://www.inkscape.org/namespaces/inkscape"
   width="30.48mm"
   height="128.5mm"
   viewBox="0 0 30.480002 128.50002"
   version="1.1"
   id="svg8"
   inkscape:version="0.92.4 (5da689c313, 2019-01-14)"
   sodipodi:docname="BipolarKnob.svg">
  <defs
     id="defs2" />
  <sodipodi:namedview
     id="base"
     pagecolor="#ffffff"
     bordercolor="#666666"
     borderopacity="1.0"
     inkscape:pageopacity="0.0"
     inkscape:pageshadow="2"
     inkscape:zoom="2.8"
     inkscape:cx="140.74093"
     inkscape:cy="328.3775"
     inkscape:document-units="mm"
     inkscape:current-layer="layer1"
     showgrid="false"
     units="mm"
     inkscape:snap-bbox="true"
     inkscape:snap-page="true"
     inkscape:bbox-nodes="false"
     inkscape:snap-bbox-edge-midpoints="false"
     inkscape:window-width="3840"
     inkscape:window-height="2126"
     inkscape:window-x="-11"
     inkscape:window-y="-11"
     inkscape:window-maximized="1"
     inkscape:snap-bbox-midpoints="true"
     inkscape:snap-nodes="false" />
  <metadata
     id="metadata5">
    <rdf:RDF>
      <cc:Work
         rdf:about="">
        <dc:format>image/svg+xml</dc:format>
        <dc:type
           rdf:resource="http://purl.org/dc/dcmitype/StillImage" />
        <dc:title></dc:title>
      </cc:Work>
    </rdf:RDF>
  </metadata>
  <g
     inkscape:label="Layer 1"
     inkscape:groupmode="layer"
     id="layer1"
     transform="translate(0,-168.49998)"
     style="display:inline">
    <rect
       style="display:inline;opacity:1;vector-effect:none;fill:#e6e6e6;fill-opacity:1;fill-rule:evenodd;stroke:none;stroke-width:0.64935839;stroke-linecap:butt;stroke-linejoin:miter;stroke-miterlimit:4;stroke-dasharray:none;stroke-dashoffset:0;stroke-opacity:1;paint-order:normal"
       id="rect420"
       width="30.48"
       height="128.5"
       x="-0.02166928"
       y="168.49997" />
    <g
       aria-label="SFxPW"
       transform="matrix(0.26458333,0,0,0.26458333,-54.765338,164.33939)"
       style="font-style:italic;font-variant:normal;font-weight:300;font-stretch:normal;font-size:32px;line-height:1.25;font-family:Roboto;-inkscape-font-specification:'Roboto, Light Italic';font-variant-ligatures:normal;font-variant-caps:normal;font-variant-numeric:normal;font-feature-settings:normal;text-align:start;letter-spacing:0px;word-spacing:0px;writing-mode:lr-tb;text-anchor:start;fill:#000000;fill-opacity:1;stroke:none"
       id="flowRoot4556">
      <path
         d="m 228.77734,64.509766 q 0.35938,-2.9375 -3.14062,-4.3125 l -2.98438,-1.078125 -0.96875,-0.390625 q -4.4375,-1.890625 -4.10937,-5.578125 0.14062,-1.8125 1.28125,-3.1875 1.14062,-1.375 3,-2.109375 1.875,-0.75 3.96875,-0.703125 2.01562,0.04687 3.59375,0.9375 1.59375,0.875 2.375,2.40625 0.79687,1.53125 0.625,3.453125 h -1.92188 q 0.21875,-2.3125 -1.09375,-3.703125 -1.29687,-1.390625 -3.67187,-1.453125 -2.46875,-0.03125 -4.23438,1.140625 -1.75,1.15625 -2,3.171875 -0.20312,1.609375 0.9375,2.75 1.15625,1.125 4,1.96875 3.625,1.15625 5.03125,2.765625 1.42188,1.609375 1.23438,3.875 -0.17188,1.875 -1.3125,3.265625 -1.14063,1.375 -3.04688,2.109375 -1.90625,0.734375 -4.09375,0.6875 -2.17187,-0.01563 -3.92187,-0.890625 -1.73438,-0.875 -2.60938,-2.390625 -0.85937,-1.53125 -0.6875,-3.53125 h 1.90625 q -0.23437,2.375 1.26563,3.78125 1.51562,1.390625 4.14062,1.421875 2.625,0.03125 4.40625,-1.1875 1.79688,-1.21875 2.03125,-3.21875 z"
         id="path4608"
         inkscape:connector-curvature="0" />
      <path
         d="m 247.90234,59.587891 h -10.28125 l -1.85937,10.625 h -1.90625 l 3.95312,-22.75 h 13.71875 l -0.29687,1.640625 h -11.79688 l -1.54687,8.84375 h 10.3125 z"
         id="path4610"
         inkscape:connector-curvature="0" />
      <path
         d="m 257.90234,60.134766 5.48438,-6.828125 h 2.3125 l -6.9375,8.390625 4.42187,8.515625 h -2.0625 l -3.53125,-7.125 -5.78125,7.125 h -2.28125 l 7.21875,-8.703125 -4.23437,-8.203125 h 2.0625 z"
         id="path4612"
         inkscape:connector-curvature="0" />
      <path
         d="m 270.24609,60.947266 -1.60937,9.265625 h -1.90625 l 3.95312,-22.75 7.40625,0.01563 q 3.1875,0.09375 4.92188,1.890625 1.73437,1.78125 1.46875,4.78125 -0.3125,3.1875 -2.57813,5 -2.26562,1.8125 -5.90625,1.8125 z m 0.28125,-1.625 5.54688,0.01563 q 2.70312,0 4.45312,-1.375 1.75,-1.375 2.04688,-3.796875 0.25,-2.3125 -1,-3.640625 -1.23438,-1.34375 -3.53125,-1.40625 l -5.73438,-0.01563 z"
         id="path4614"
         inkscape:connector-curvature="0" />
      <path
         d="m 291.21484,64.134766 0.10938,3.359375 1.35937,-3.328125 7.375,-16.703125 h 1.71875 l 2.125,16.859375 0.26563,3.21875 1.28125,-3.53125 6.5625,-16.546875 h 2 l -9.21875,22.75 h -1.82813 l -2.23437,-17.875 -0.17188,-2.09375 -0.875,2.171875 -7.90625,17.796875 h -1.82812 l -2.09375,-22.75 h 1.90625 z"
         id="path4616"
         inkscape:connector-curvature="0" />
    </g>
    <rect
       style="fill:#000000;fill-opacity:1;stroke-width:0.25392941"
       id="rect4590"
       width="19.276785"
       height="25.676006"
       x="5.5799379"
       y="256.96707" />
    <g
       aria-label="out"
       transform="matrix(0.26458333,0,0,0.26458333,-45.980467,260.67723)"
       style="font-style:italic;font-variant:normal;font-weight:300;font-stretch:normal;font-size:24px;line-height:1.25;font-family:Roboto;-inkscape-font-specification:'Roboto, Light Italic';font-variant-ligatures:normal;font-variant-caps:normal;font-variant-numeric:normal;font-feature-settings:normal;text-align:start;letter-spacing:0px;word-spacing:0px;writing-mode:lr-tb;text-anchor:start;fill:#ffffff;fill-opacity:1;stroke:none"
       id="flowRoot4556-8">
      <path
         d="m 215.03125,56.755859 q 0.21094,-1.839843 1.125,-3.363281 0.91406,-1.535156 2.27344,-2.332031 1.37109,-0.796875 2.96484,-0.761719 1.57031,0.02344 2.67188,0.867188 1.11328,0.832031 1.61718,2.285156 0.51563,1.441406 0.35157,3.199219 l -0.0234,0.222656 q -0.35156,3 -2.13281,4.816406 -1.76954,1.816406 -4.25391,1.757813 -2.13281,-0.03516 -3.41016,-1.570313 -1.27734,-1.535156 -1.2539,-4.054687 l 0.0352,-0.667969 z m 1.35937,0.398438 q -0.15234,1.394531 0.19922,2.578125 0.36328,1.171875 1.14844,1.839844 0.78516,0.667968 1.95703,0.703125 1.26563,0.02344 2.3086,-0.644532 1.05468,-0.667968 1.73437,-1.886718 0.67969,-1.21875 0.87891,-2.695313 l 0.0352,-0.386719 q 0.21094,-2.261718 -0.70312,-3.691406 -0.90235,-1.441406 -2.625,-1.476562 -1.875,-0.05859 -3.2461,1.453125 -1.35937,1.5 -1.66406,3.996093 z"
         id="path4601"
         inkscape:connector-curvature="0" />
      <path
         d="m 236.27734,61.619141 q -1.51172,1.898437 -4.17187,1.828125 -1.79297,-0.03516 -2.67188,-1.289063 -0.8789,-1.265625 -0.63281,-3.503906 l 1.35938,-8.121094 h 1.38281 l -1.34766,8.15625 q -0.0703,0.632813 -0.0117,1.253906 0.082,1.078125 0.64453,1.664063 0.5625,0.585937 1.54688,0.621094 1.40625,0.05859 2.60156,-0.644532 1.19531,-0.714843 1.54688,-1.863281 l 1.57031,-9.1875 H 239.5 l -2.20313,12.679688 h -1.35937 z"
         id="path4603"
         inkscape:connector-curvature="0" />
      <path
         d="m 245.66406,47.287109 -0.5625,3.246094 h 2.54297 l -0.19922,1.148438 h -2.54297 l -1.40625,8.460937 -0.0234,0.726563 q 0,1.277343 1.17187,1.3125 0.36328,0.01172 1.13672,-0.08203 l -0.0586,1.148438 q -0.69141,0.199219 -1.40625,0.175781 -1.23047,-0.02344 -1.79297,-0.855469 -0.5625,-0.84375 -0.41016,-2.4375 l 1.39453,-8.449218 h -2.27344 l 0.21094,-1.148438 h 2.25 l 0.57422,-3.246094 z"
         id="path4605"
         inkscape:connector-curvature="0" />
    </g>
    <g
       aria-label="KNOB"
       transform="matrix(0.1984375,0,0,0.1984375,-18.21929,177.07656)"
       style="font-style:normal;font-weight:normal;font-size:40px;line-height:1.25;font-family:sans-serif;letter-spacing:0px;word-spacing:0px;fill:#000000;fill-opacity:1;stroke:none"
       id="flowRoot4546">
      <path
         d="m 141.09505,119.52995 -3.09896,2.66927 -1.17187,6.71875 h -1.58854 l 3.29427,-18.95834 h 1.58854 l -1.75781,10.10417 3.03385,-2.73437 8.04688,-7.3698 h 2.12239 l -9.25781,8.51563 6.43229,10.44271 h -1.79687 z"
         style="font-style:italic;font-variant:normal;font-weight:300;font-stretch:normal;font-size:26.66666794px;font-family:Roboto;-inkscape-font-specification:'Roboto, Light Italic';font-variant-ligatures:normal;font-variant-caps:normal;font-variant-numeric:normal;font-feature-settings:normal;text-align:start;writing-mode:lr-tb;text-anchor:start"
         id="path4655"
         inkscape:connector-curvature="0" />
      <path
         d="m 165.43099,128.91797 h -1.53646 l -7.77344,-16.25 -2.82552,16.25 h -1.60156 l 3.29427,-18.95834 h 1.53646 l 7.78646,16.26303 2.82552,-16.26303 h 1.57552 z"
         style="font-style:italic;font-variant:normal;font-weight:300;font-stretch:normal;font-size:26.66666794px;font-family:Roboto;-inkscape-font-specification:'Roboto, Light Italic';font-variant-ligatures:normal;font-variant-caps:normal;font-variant-numeric:normal;font-feature-settings:normal;text-align:start;writing-mode:lr-tb;text-anchor:start"
         id="path4657"
         inkscape:connector-curvature="0" />
      <path
         d="m 176.7461,129.17839 q -2.65625,-0.0521 -4.21875,-1.83594 -1.54948,-1.79688 -1.67969,-4.79167 -0.0521,-1.04167 0.0911,-2.07031 l 0.26042,-1.79688 q 0.58594,-3.97135 2.86458,-6.48437 2.33073,-2.56511 5.75521,-2.5 1.74479,0.0391 3.04688,0.85937 1.3151,0.80729 2.04427,2.36979 0.72916,1.54948 0.79427,3.41146 0.0391,1.11979 -0.11719,2.1875 l -0.29948,2.00521 q -0.45573,2.68229 -1.69271,4.6875 -1.22395,2.00521 -2.98177,3.00781 -1.75781,0.98959 -3.86718,0.95053 z m 7.27864,-10.79428 q 0.10417,-0.82031 0.11719,-1.66666 0,-1.58854 -0.49479,-2.89063 -0.49479,-1.30208 -1.4974,-1.99219 -0.98958,-0.70312 -2.40885,-0.74218 -2.60417,-0.0651 -4.44011,1.875 -1.83593,1.92708 -2.42187,5.22135 -0.46875,2.66927 -0.45573,3.94531 0,2.63021 1.14583,4.11459 1.15886,1.48437 3.25521,1.53646 2.77344,0.0651 4.58333,-2.00521 1.82292,-2.07031 2.33073,-5.46875 z"
         style="font-style:italic;font-variant:normal;font-weight:300;font-stretch:normal;font-size:26.66666794px;font-family:Roboto;-inkscape-font-specification:'Roboto, Light Italic';font-variant-ligatures:normal;font-variant-caps:normal;font-variant-numeric:normal;font-feature-settings:normal;text-align:start;writing-mode:lr-tb;text-anchor:start"
         id="path4659"
         inkscape:connector-curvature="0" />
      <path
         d="m 187.83985,128.91797 3.29427,-18.95834 5.33854,0.013 q 2.72135,0.0651 4.10156,1.34114 1.38021,1.27604 1.17188,3.51563 -0.14323,1.48437 -1.08073,2.59114 -0.9375,1.09375 -2.53907,1.66667 1.35417,0.41667 2.10938,1.6276 0.75521,1.19792 0.63802,2.76042 -0.19531,2.47396 -2.00521,3.95833 -1.79687,1.48438 -4.70052,1.48438 z m 3.17708,-9.11459 -1.35417,7.76042 4.55729,0.013 q 2.0573,0 3.45052,-1.08073 1.40625,-1.08073 1.62761,-2.99479 0.16927,-1.65364 -0.75521,-2.64323 -0.91146,-0.98958 -2.66927,-1.04166 z m 0.22135,-1.34114 4.15365,0.013 q 2.03125,-0.026 3.29427,-1.02865 1.27604,-1.0026 1.45833,-2.68229 0.32552,-3.29427 -3.71093,-3.42448 l -3.94532,-0.013 z"
         style="font-style:italic;font-variant:normal;font-weight:300;font-stretch:normal;font-size:26.66666794px;font-family:Roboto;-inkscape-font-specification:'Roboto, Light Italic';font-variant-ligatures:normal;font-variant-caps:normal;font-variant-numeric:normal;font-feature-settings:normal;text-align:start;writing-mode:lr-tb;text-anchor:start"
         id="path4661"
         inkscape:connector-curvature="0" />
    </g>
    <g
       aria-label="BIPOLAR"
       transform="matrix(0.1984375,0,0,0.1984375,-21.697808,171.72196)"
       style="font-style:normal;font-weight:normal;font-size:40px;line-height:1.25;font-family:sans-serif;letter-spacing:0px;word-spacing:0px;display:inline;fill:#000000;fill-opacity:1;stroke:none"
       id="flowRoot4546-6">
      <path
         d="m 135.23568,128.91797 3.29427,-18.95834 5.33854,0.013 q 2.72135,0.0651 4.10156,1.34114 1.38021,1.27604 1.17188,3.51563 -0.14323,1.48437 -1.08073,2.59114 -0.9375,1.09375 -2.53906,1.66667 1.35416,0.41667 2.10937,1.6276 0.75521,1.19792 0.63802,2.76042 -0.19531,2.47396 -2.00521,3.95833 -1.79687,1.48438 -4.70052,1.48438 z m 3.17708,-9.11459 -1.35417,7.76042 4.5573,0.013 q 2.05729,0 3.45052,-1.08073 1.40625,-1.08073 1.6276,-2.99479 0.16927,-1.65364 -0.75521,-2.64323 -0.91146,-0.98958 -2.66927,-1.04166 z m 0.22135,-1.34114 4.15365,0.013 q 2.03125,-0.026 3.29427,-1.02865 1.27604,-1.0026 1.45834,-2.68229 0.32552,-3.29427 -3.71094,-3.42448 l -3.94532,-0.013 z"
         style="font-style:italic;font-variant:normal;font-weight:300;font-stretch:normal;font-size:26.66666794px;font-family:Roboto;-inkscape-font-specification:'Roboto, Light Italic';font-variant-ligatures:normal;font-variant-caps:normal;font-variant-numeric:normal;font-feature-settings:normal;text-align:start;writing-mode:lr-tb;text-anchor:start"
         id="path4640"
         inkscape:connector-curvature="0" />
      <path
         d="m 153.15234,128.91797 h -1.58854 l 3.29427,-18.95834 h 1.58855 z"
         style="font-style:italic;font-variant:normal;font-weight:300;font-stretch:normal;font-size:26.66666794px;font-family:Roboto;-inkscape-font-specification:'Roboto, Light Italic';font-variant-ligatures:normal;font-variant-caps:normal;font-variant-numeric:normal;font-feature-settings:normal;text-align:start;writing-mode:lr-tb;text-anchor:start"
         id="path4642"
         inkscape:connector-curvature="0" />
      <path
         d="m 161.1862,121.19661 -1.34115,7.72136 h -1.58854 l 3.29427,-18.95834 6.17188,0.013 q 2.65625,0.0781 4.10156,1.57552 1.44531,1.48437 1.22396,3.98437 -0.26042,2.65625 -2.14844,4.16667 -1.88802,1.51042 -4.92187,1.51042 z m 0.23437,-1.35416 4.6224,0.013 q 2.2526,0 3.71094,-1.14584 1.45833,-1.14583 1.70573,-3.16406 0.20833,-1.92708 -0.83334,-3.03385 -1.02864,-1.11979 -2.94271,-1.17188 l -4.77864,-0.013 z"
         style="font-style:italic;font-variant:normal;font-weight:300;font-stretch:normal;font-size:26.66666794px;font-family:Roboto;-inkscape-font-specification:'Roboto, Light Italic';font-variant-ligatures:normal;font-variant-caps:normal;font-variant-numeric:normal;font-feature-settings:normal;text-align:start;writing-mode:lr-tb;text-anchor:start"
         id="path4644"
         inkscape:connector-curvature="0" />
      <path
         d="m 180.86068,129.17839 q -2.65625,-0.0521 -4.21875,-1.83594 -1.54948,-1.79688 -1.67969,-4.79167 -0.0521,-1.04167 0.0911,-2.07031 l 0.26042,-1.79688 q 0.58593,-3.97135 2.86458,-6.48437 2.33073,-2.56511 5.75521,-2.5 1.74479,0.0391 3.04687,0.85937 1.31511,0.80729 2.04427,2.36979 0.72917,1.54948 0.79428,3.41146 0.0391,1.11979 -0.11719,2.1875 l -0.29948,2.00521 q -0.45573,2.68229 -1.69271,4.6875 -1.22396,2.00521 -2.98177,3.00781 -1.75781,0.98959 -3.86719,0.95053 z m 7.27865,-10.79428 q 0.10416,-0.82031 0.11718,-1.66666 0,-1.58854 -0.49479,-2.89063 -0.49479,-1.30208 -1.49739,-1.99219 -0.98959,-0.70312 -2.40886,-0.74218 -2.60416,-0.0651 -4.4401,1.875 -1.83594,1.92708 -2.42188,5.22135 -0.46875,2.66927 -0.45573,3.94531 0,2.63021 1.14584,4.11459 1.15885,1.48437 3.25521,1.53646 2.77343,0.0651 4.58333,-2.00521 1.82292,-2.07031 2.33073,-5.46875 z"
         style="font-style:italic;font-variant:normal;font-weight:300;font-stretch:normal;font-size:26.66666794px;font-family:Roboto;-inkscape-font-specification:'Roboto, Light Italic';font-variant-ligatures:normal;font-variant-caps:normal;font-variant-numeric:normal;font-feature-settings:normal;text-align:start;writing-mode:lr-tb;text-anchor:start"
         id="path4646"
         inkscape:connector-curvature="0" />
      <path
         d="m 193.79037,127.5638 h 9.08854 l -0.23437,1.35417 h -10.69011 l 3.29427,-18.95834 h 1.60156 z"
         style="font-style:italic;font-variant:normal;font-weight:300;font-stretch:normal;font-size:26.66666794px;font-family:Roboto;-inkscape-font-specification:'Roboto, Light Italic';font-variant-ligatures:normal;font-variant-caps:normal;font-variant-numeric:normal;font-feature-settings:normal;text-align:start;writing-mode:lr-tb;text-anchor:start"
         id="path4648"
         inkscape:connector-curvature="0" />
      <path
         d="m 216.85027,123.60547 h -8.3073 l -2.82552,5.3125 h -1.73177 l 10.2474,-18.95834 h 1.52344 l 3.65885,18.95834 h -1.57552 z m -7.59115,-1.36719 h 7.33073 l -1.875,-10.27344 z"
         style="font-style:italic;font-variant:normal;font-weight:300;font-stretch:normal;font-size:26.66666794px;font-family:Roboto;-inkscape-font-specification:'Roboto, Light Italic';font-variant-ligatures:normal;font-variant-caps:normal;font-variant-numeric:normal;font-feature-settings:normal;text-align:start;writing-mode:lr-tb;text-anchor:start"
         id="path4650"
         inkscape:connector-curvature="0" />
      <path
         d="m 230.5612,121.02734 h -5.35156 l -1.38021,7.89063 h -1.60157 l 3.29428,-18.95834 5.61198,0.013 q 2.83854,0 4.375,1.48437 1.53645,1.47135 1.28906,3.98438 -0.19531,1.90104 -1.43229,3.28125 -1.22396,1.3802 -3.26823,2.0052 l 3.22916,8.00782 -0.013,0.18229 h -1.69271 z m -5.11719,-1.36718 4.6875,0.013 q 2.00521,0 3.42448,-1.17188 1.43229,-1.18489 1.65365,-3.07292 0.22135,-1.82291 -0.8073,-2.92968 -1.02864,-1.10677 -3.03385,-1.15886 l -4.47917,-0.013 z"
         style="font-style:italic;font-variant:normal;font-weight:300;font-stretch:normal;font-size:26.66666794px;font-family:Roboto;-inkscape-font-specification:'Roboto, Light Italic';font-variant-ligatures:normal;font-variant-caps:normal;font-variant-numeric:normal;font-feature-settings:normal;text-align:start;writing-mode:lr-tb;text-anchor:start"
         id="path4652"
         inkscape:connector-curvature="0" />
    </g>
  </g>
  <g
     inkscape:groupmode="layer"
     id="layer2"
     inkscape:label="components"
     style="display:none">
    <circle
       style="display:inline;opacity:1;vector-effect:none;fill:#ff0000;fill-opacity:1;fill-rule:evenodd;stroke:none;stroke-width:1;stroke-linecap:butt;stroke-linejoin:miter;stroke-miterlimit:4;stroke-dasharray:none;stroke-dashoffset:0;stroke-opacity:1;paint-order:normal"
       id="path4954"
       cx="15.21833"
       cy="46.063263"
       r="4"
       inkscape:label="knob" />
    <circle
       style="display:inline;opacity:1;vector-effect:none;fill:#0000ff;fill-opacity:1;fill-rule:evenodd;stroke:none;stroke-width:1;stroke-linecap:butt;stroke-linejoin:miter;stroke-miterlimit:4;stroke-dasharray:none;stroke-dashoffset:0;stroke-opacity:1;paint-order:normal"
       id="circle4958"
       cx="15.21833"
       cy="96.812469"
       r="4"
       inkscape:label="level" />
  </g>
</svg>
